<svg width="24" height="24" viewBox="0 0 24 24" fill="none" xmlns="http://www.w3.org/2000/svg">
<g id="carbon:logo-medium">
<path id="Vector" d="M22.5 12C22.5 14.775 22.05 17.025 21.45 17.025C20.85 17.025 20.4 14.775 20.4 12C20.4 9.225 20.85 6.975 21.45 6.975C22.05 6.975 22.5 9.225 22.5 12ZM19.875 12C19.875 15.075 18.525 17.625 16.95 17.625C15.375 17.625 14.025 15.075 14.025 12C14.025 8.925 15.375 6.375 16.95 6.375C18.525 6.375 19.875 8.925 19.875 12ZM13.35 12C13.35 15.3 10.725 18 7.425 18C4.125 18 1.5 15.3 1.5 12C1.5 8.7 4.125 6 7.425 6C10.725 6 13.35 8.7 13.35 12Z" fill="#38516D"/>
</g>
</svg>
